HIERARCHY
ROOT Hips
{
	OFFSET 0.00000 0.00000 0.00000
	CHANNELS 6 Xposition Yposition Zposition Zrotation Yrotation Xrotation 
	JOINT LHipJoint
	{
		OFFSET 0 0 0
		CHANNELS 3 Zrotation Yrotation Xrotation
		JOINT LeftUpLeg
		{
			OFFSET 1.53139 -1.83434 0.76626
			CHANNELS 3 Zrotation Yrotation Xrotation
			JOINT LeftLeg
			{
				OFFSET 2.56112 -7.03663 0.00000
				CHANNELS 3 Zrotation Yrotation Xrotation
				JOINT LeftFoot
				{
					OFFSET 2.59983 -7.14299 0.00000
					CHANNELS 3 Zrotation Yrotation Xrotation
					JOINT LeftToeBase
					{
						OFFSET 0.13742 -0.37757 2.00054
						CHANNELS 3 Zrotation Yrotation Xrotation
						End Site
						{
							OFFSET 0.00000 -0.00000 1.02897
						}
					}
				}
			}
		}
	}
	JOINT RHipJoint
	{
		OFFSET 0 0 0
		CHANNELS 3 Zrotation Yrotation Xrotation
		JOINT RightUpLeg
		{
			OFFSET -1.40122 -1.83435 0.76627
			CHANNELS 3 Zrotation Yrotation Xrotation
			JOINT RightLeg
			{
				OFFSET -2.54052 -6.98003 0.00000
				CHANNELS 3 Zrotation Yrotation Xrotation
				JOINT RightFoot
				{
					OFFSET -2.63179 -7.23079 0.00000
					CHANNELS 3 Zrotation Yrotation Xrotation
					JOINT RightToeBase
					{
						OFFSET -0.24131 -0.66299 2.03908
						CHANNELS 3 Zrotation Yrotation Xrotation
						End Site
						{
							OFFSET -0.00000 -0.00000 1.07391
						}
					}
				}
			}
		}
	}
	JOINT LowerBack
	{
		OFFSET 0 0 0
		CHANNELS 3 Zrotation Yrotation Xrotation
		JOINT Spine
		{
			OFFSET 0.01174 2.10302 -0.29778
			CHANNELS 3 Zrotation Yrotation Xrotation
			JOINT Spine1
			{
				OFFSET 0.00772 2.13227 -0.01247
				CHANNELS 3 Zrotation Yrotation Xrotation
				JOINT Neck
				{
					OFFSET 0 0 0
					CHANNELS 3 Zrotation Yrotation Xrotation
					JOINT Neck1
					{
						OFFSET -0.09219 1.60848 0.31481
						CHANNELS 3 Zrotation Yrotation Xrotation
						JOINT Head
						{
							OFFSET 0.13974 1.65456 -0.31134
							CHANNELS 3 Zrotation Yrotation Xrotation
							End Site
							{
								OFFSET 0.04742 1.69515 -0.14578
							}
						}
					}
				}
				JOINT LeftShoulder
				{
					OFFSET 0 0 0
					CHANNELS 3 Zrotation Yrotation Xrotation
					JOINT LeftArm
					{
						OFFSET 3.24909 1.02882 -0.23993
						CHANNELS 3 Zrotation Yrotation Xrotation
						JOINT LeftForeArm
						{
							OFFSET 5.32955 -0.00000 -0.00000
							CHANNELS 3 Zrotation Yrotation Xrotation
							JOINT LeftHand
							{
								OFFSET 3.69232 -0.00000 -0.00000
								CHANNELS 3 Zrotation Yrotation Xrotation
								JOINT LeftFingerBase
								{
									OFFSET 0 0 0
									CHANNELS 3 Zrotation Yrotation Xrotation
									JOINT LeftHandIndex1
									{
										OFFSET 0.53660 -0.00000 -0.00000
										CHANNELS 3 Zrotation Yrotation Xrotation
										End Site
										{
											OFFSET 0.43262 -0.00000 -0.00000
										}
									}
								}
								JOINT LThumb
								{
									OFFSET 0 0 0
									CHANNELS 3 Zrotation Yrotation Xrotation
									End Site
									{
										OFFSET 0.43922 -0.00000 0.43922
									}
								}
							}
						}
					}
				}
				JOINT RightShoulder
				{
					OFFSET 0 0 0
					CHANNELS 3 Zrotation Yrotation Xrotation
					JOINT RightArm
					{
						OFFSET -3.21387 0.93002 -0.34594
						CHANNELS 3 Zrotation Yrotation Xrotation
						JOINT RightForeArm
						{
							OFFSET -5.23431 -0.00000 0.00000
							CHANNELS 3 Zrotation Yrotation Xrotation
							JOINT RightHand
							{
								OFFSET -3.55301 -0.00000 -0.00000
								CHANNELS 3 Zrotation Yrotation Xrotation
								JOINT RightFingerBase
								{
									OFFSET 0 0 0
									CHANNELS 3 Zrotation Yrotation Xrotation
									JOINT RightHandIndex1
									{
										OFFSET -0.77252 -0.00000 -0.00000
										CHANNELS 3 Zrotation Yrotation Xrotation
										End Site
										{
											OFFSET -0.62283 -0.00000 -0.00000
										}
									}
								}
								JOINT RThumb
								{
									OFFSET 0 0 0
									CHANNELS 3 Zrotation Yrotation Xrotation
									End Site
									{
										OFFSET -0.63234 -0.00000 0.63234
									}
								}
							}
						}
					}
				}
			}
		}
	}
}
MOTION
Frames: 8
Frame Time: .0083333
-16.0715 17.7933 12.6036 0 0 0 0 0 0 -21 0 0 0 0 0 0 0 0 0 0 0 0 0 0 21 0 0 0 0 0 0 0 0 0 0 0 0 0 0 0 0 0 0 0 0 0 0 -16 0 0 21 0 0 11 0 0 0 -8 0 0 0 0 0 0 0 0 0 0 0 0 0 0 0 0 0 0 0 0 8 0 0 0 0 0 0 0 0 0 0 0 0 0 0 0 0 0
-16.0715 17.7933 12.6036 2.3839 32.6177 4.9352 0.0000 0.0000 0.0000 -20.9184 -7.2729 -12.9860 1.9140 8.6845 24.8133 0.3323 -2.3910 -10.3244 0.0183 -0.8729 -2.3993 0.0000 0.0000 0.0000 18.6389 6.6131 -10.5574 -2.8326 -10.4190 30.3446 -1.0683 7.1132 -18.4567 -0.0068 -0.5309 1.4587 -6.4049 -1.5981 7.9264 -1.5929 -2.7460 0.4486 2.2350 -1.2575 -3.7594 -20.3023 -17.3049 -0.4539 11.9430 -25.2550 22.3645 4.0489 -12.5087 11.5408 -0.0000 0.0000 0.0000 -85.5527 -2.9145 22.6984 14.6510 -23.6576 -3.0845 -0.0000 -0.0000 7.9655 21.4157 23.1075 8.7507 -7.1250 0.0000 -0.0000 -8.1552 54.4190 -1.8970 -0.0000 0.0000 0.0000 92.2394 2.0874 20.0588 -11.6486 19.2756 -1.9848 0.0000 0.0000 15.2321 -13.6279 8.7954 -2.1230 7.1250 -0.0000 -0.0000 9.5433 -20.9862 5.5688
-16.1041 17.7965 12.5987 2.0192 32.6170 4.7351 0.0000 0.0000 0.0000 -20.4880 -7.7192 -12.9977 1.9430 8.7463 25.0048 0.3440 -1.9891 -10.5675 0.0066 -0.5255 -1.4439 0.0000 0.0000 0.0000 19.0468 6.4324 -10.5849 -2.7916 -10.3497 30.1169 -1.0385 7.1587 -18.1983 -0.0058 -0.4923 1.3527 -6.0997 -1.5437 8.0288 -1.4650 -2.6509 0.4477 2.1921 -1.2130 -3.8329 -20.6220 -17.2529 -0.4705 12.4402 -25.2778 22.2634 4.2498 -12.5029 11.6354 -0.0000 -0.0000 0.0000 -85.6930 -3.0799 22.2919 14.5384 -23.4991 -3.0395 -0.0000 -0.0000 8.0162 21.3295 23.1953 8.7433 -7.1250 0.0000 -0.0000 -8.2781 54.4926 -1.9407 -0.0000 -0.0000 0.0000 92.1438 2.1742 19.8091 -11.5039 19.0565 -1.9373 0.0000 0.0000 15.4787 -13.4994 8.7924 -2.1016 7.1250 -0.0000 -0.0000 9.6355 -20.9948 5.6223
-16.1352 17.7999 12.5951 1.8195 32.6701 4.6388 0.0000 0.0000 0.0000 -20.2109 -7.9733 -13.0563 1.9592 8.7807 25.1116 0.3496 -1.7790 -10.6915 0.0000 -0.0068 -0.0187 0.0000 0.0000 0.0000 19.2938 6.1367 -10.7173 -2.7692 -10.3116 29.9919 -1.0156 7.3161 -18.0030 -0.0049 -0.4521 1.2421 -5.9283 -1.5330 8.0113 -1.3831 -2.6139 0.5071 2.1760 -1.2003 -3.7674 -20.5214 -17.1972 -0.5590 12.4951 -25.1750 22.0672 4.2746 -12.4426 11.5496 -0.0000 -0.0000 0.0000 -85.7801 -3.1128 22.1164 14.6095 -23.5993 -3.0679 -0.0000 -0.0000 7.7727 21.2645 23.4360 8.7986 -7.1250 0.0000 -0.0000 -8.4399 54.7274 -2.0275 -0.0000 -0.0000 0.0000 92.0378 2.4267 19.7434 -11.3284 18.7899 -1.8803 0.0000 0.0000 15.6742 -13.3867 8.6500 -2.0499 7.1250 -0.0000 -0.0000 9.7221 -21.1439 5.6410
-16.1685 17.8040 12.5886 1.7714 32.7506 4.6153 0.0000 0.0000 0.0000 -20.0644 -8.1651 -13.1467 1.9772 8.8184 25.2288 0.3501 -1.6947 -10.7147 0.0021 0.2943 0.8086 0.0000 0.0000 0.0000 19.4112 5.8490 -10.8450 -2.7435 -10.2678 29.8485 -0.9986 7.4252 -17.8580 -0.0005 -0.1508 0.4143 -5.8368 -1.4991 8.0906 -1.3911 -2.5653 0.5381 2.1140 -1.1777 -3.7877 -20.3607 -17.1761 -0.6899 12.5210 -25.1328 22.0209 4.2636 -12.4034 11.5278 0.0000 0.0000 0.0000 -85.7704 -3.0180 22.0742 14.7456 -23.7906 -3.1226 -0.0000 -0.0000 7.4487 21.2730 23.6282 8.8694 -7.1250 0.0000 -0.0000 -8.5080 54.9268 -2.0854 0.0000 0.0000 0.0000 92.0493 2.5780 19.5459 -11.2383 18.6526 -1.8514 0.0000 0.0000 15.7813 -13.1140 8.5385 -1.9810 7.1250 -0.0000 -0.0000 9.9224 -21.2680 5.7323
-16.2041 17.8064 12.5817 1.8058 32.8574 4.6641 0.0000 0.0000 0.0000 -19.9916 -8.3941 -13.2599 1.9940 8.8535 25.3381 0.3458 -1.5644 -10.6728 0.0021 0.2985 0.8202 0.0000 0.0000 0.0000 19.4403 5.6176 -11.0058 -2.7206 -10.2284 29.7195 -0.9863 7.5564 -17.7559 -0.0004 0.1236 -0.3395 -5.8224 -1.4653 8.2213 -1.4027 -2.5305 0.5127 2.0953 -1.1572 -3.8914 -20.3439 -17.1385 -0.7578 12.6710 -25.1043 21.9918 4.3142 -12.3742 11.5447 0.0000 -0.0000 0.0000 -85.7769 -2.9063 21.9518 14.8261 -23.9033 -3.1552 -0.0000 -0.0000 7.2442 21.2970 23.8050 8.9417 -7.1250 0.0000 -0.0000 -8.5547 55.1130 -2.1358 0.0000 -0.0000 0.0000 92.0623 2.5726 19.3139 -11.2449 18.6627 -1.8535 0.0000 0.0000 15.8975 -12.9806 8.5389 -1.9603 7.1250 -0.0000 -0.0000 10.0181 -21.2731 5.7881
-16.2408 17.8067 12.5726 1.7843 33.0500 4.7139 0.0000 0.0000 0.0000 -19.8564 -8.5802 -13.4396 2.0078 8.8822 25.4277 0.3409 -1.5755 -10.5925 0.0012 0.2207 0.6063 0.0000 0.0000 0.0000 19.5102 5.3981 -11.1916 -2.7000 -10.1928 29.6034 -0.9701 7.7375 -17.6229 -0.0002 -0.0905 0.2488 -5.7930 -1.4899 8.3359 -1.3370 -2.5665 0.5110 2.1551 -1.1732 -3.9527 -20.3707 -17.0483 -0.8563 12.8351 -24.9760 21.8362 4.3950 -12.3018 11.5080 -0.0000 0.0000 0.0000 -85.8995 -2.7985 21.8520 14.9549 -24.0833 -3.2075 -0.0000 -0.0000 7.0127 21.2850 23.7590 8.9203 -7.1250 0.0000 -0.0000 -8.5485 55.0635 -2.1239 -0.0000 0.0000 0.0000 91.9172 2.6042 19.5330 -11.2968 18.7417 -1.8702 0.0000 0.0000 15.8775 -13.2533 8.5971 -2.0164 7.1250 -0.0000 -0.0000 9.8199 -21.2031 5.6860
-16.2762 17.8078 12.5637 1.7087 33.2907 4.7663 0.0000 0.0000 0.0000 -19.6575 -8.8942 -13.5904 2.0159 8.8991 25.4801 0.3343 -1.5259 -10.4955 0.0007 0.1663 0.4570 0.0000 0.0000 0.0000 19.6402 5.0870 -11.4367 -2.6850 -10.1667 29.5182 -0.9573 7.8841 -17.5199 -0.0011 -0.2097 0.5763 -5.6990 -1.5502 8.3785 -1.2671 -2.6368 0.5396 2.1840 -1.2100 -3.9420 -20.2870 -16.9390 -1.1520 12.8479 -24.7743 21.8426 4.4075 -12.1868 11.5163 -0.0000 -0.0000 0.0000 -85.9864 -2.8176 21.7398 14.9971 -24.1421 -3.2248 -0.0000 -0.0000 6.9171 21.0638 23.5661 8.7538 -7.1250 0.0000 -0.0000 -8.6997 54.8214 -2.1105 -0.0000 -0.0000 0.0000 91.7363 2.6348 20.0978 -11.4218 18.9319 -1.9105 0.0000 0.0000 15.5415 -13.4858 8.6769 -2.0720 7.1250 -0.0000 -0.0000 9.6498 -21.1125 5.6048
